<svg width="177" height="47" viewBox="0 0 177 47" fill="none" xmlns="http://www.w3.org/2000/svg">
<path d="M24.9753 46.7681C21.4339 46.7681 18.1699 46.2135 15.1833 45.1041C12.2393 43.9521 9.65792 42.3308 7.43925 40.2401C5.26325 38.1495 3.55659 35.6961 2.31926 32.8801C1.12459 30.0641 0.527252 26.9708 0.527252 23.6001C0.527252 20.2295 1.12459 17.1361 2.31926 14.3201C3.55659 11.5041 5.28459 9.05079 7.50325 6.96013C9.72192 4.86946 12.3246 3.26946 15.3113 2.16013C18.2979 1.00813 21.5833 0.432129 25.1673 0.432129C29.1353 0.432129 32.6979 1.09346 35.8553 2.41613C39.0553 3.73879 41.7433 5.65879 43.9193 8.17613L37.2633 14.3201C35.6419 12.6135 33.8713 11.3548 31.9513 10.5441C30.0313 9.6908 27.9406 9.26413 25.6793 9.26413C23.5033 9.26413 21.5193 9.60546 19.7273 10.2881C17.9353 10.9708 16.3779 11.9521 15.0553 13.2321C13.7753 14.5121 12.7726 16.0268 12.0473 17.7761C11.3646 19.5255 11.0233 21.4668 11.0233 23.6001C11.0233 25.6908 11.3646 27.6108 12.0473 29.3601C12.7726 31.1095 13.7753 32.6455 15.0553 33.9681C16.3779 35.2481 17.9139 36.2295 19.6633 36.9121C21.4553 37.5948 23.4179 37.9361 25.5513 37.9361C27.5993 37.9361 29.5833 37.6161 31.5033 36.9761C33.4659 36.2935 35.3646 35.1628 37.1993 33.5841L43.0873 41.0721C40.6553 42.9068 37.8179 44.3148 34.5753 45.2961C31.3753 46.2775 28.1753 46.7681 24.9753 46.7681ZM33.6153 39.7281V22.8961H43.0873V41.0721L33.6153 39.7281Z" fill="#FFA3A3"/>
<path d="M73.1342 46.0001V39.2801L72.4942 37.8081V25.7761C72.4942 23.6428 71.8329 21.9788 70.5103 20.7841C69.2303 19.5895 67.2463 18.9921 64.5583 18.9921C62.7236 18.9921 60.9103 19.2908 59.1183 19.8881C57.3689 20.4428 55.8756 21.2108 54.6383 22.1921L51.0543 15.2161C52.9316 13.8935 55.1929 12.8695 57.8383 12.1441C60.4836 11.4188 63.1716 11.0561 65.9023 11.0561C71.1503 11.0561 75.2249 12.2935 78.1263 14.7681C81.0276 17.2428 82.4783 21.1041 82.4783 26.3521V46.0001H73.1342ZM62.6383 46.5121C59.9503 46.5121 57.6463 46.0641 55.7263 45.1681C53.8063 44.2295 52.3343 42.9708 51.3103 41.3921C50.2863 39.8135 49.7743 38.0428 49.7743 36.0801C49.7743 34.0321 50.2649 32.2401 51.2463 30.7041C52.2703 29.1681 53.8703 27.9735 56.0463 27.1201C58.2223 26.2241 61.0596 25.7761 64.5583 25.7761H73.7103V31.6001H65.6463C63.2996 31.6001 61.6783 31.9841 60.7823 32.7521C59.9289 33.5201 59.5023 34.4801 59.5023 35.6321C59.5023 36.9121 59.9929 37.9361 60.9743 38.7041C61.9983 39.4295 63.3849 39.7921 65.1342 39.7921C66.7982 39.7921 68.2916 39.4081 69.6143 38.6401C70.9369 37.8295 71.8969 36.6561 72.4942 35.1201L74.0303 39.7281C73.3049 41.9468 71.9823 43.6321 70.0623 44.7841C68.1423 45.9361 65.6676 46.5121 62.6383 46.5121Z" fill="#FFA3A3"/>
<path d="M92.2182 46.0001V1.20013H100.794L127.226 33.4561H123.066V1.20013H133.306V46.0001H124.794L98.2982 13.7441H102.458V46.0001H92.2182Z" fill="#FFA3A3"/>
<path d="M160.29 46.5121C156.364 46.5121 152.908 45.7441 149.922 44.2081C146.978 42.6721 144.695 40.5815 143.074 37.9361C141.452 35.2481 140.642 32.1975 140.642 28.7841C140.642 25.3281 141.431 22.2775 143.01 19.6321C144.631 16.9441 146.828 14.8535 149.602 13.3601C152.375 11.8241 155.511 11.0561 159.01 11.0561C162.38 11.0561 165.41 11.7815 168.098 13.2321C170.828 14.6401 172.983 16.6881 174.562 19.3761C176.14 22.0215 176.93 25.2001 176.93 28.9121C176.93 29.2961 176.908 29.7441 176.866 30.2561C176.823 30.7255 176.78 31.1735 176.738 31.6001H148.77V25.7761H171.49L167.65 27.5041C167.65 25.7121 167.287 24.1548 166.562 22.8321C165.836 21.5095 164.834 20.4855 163.554 19.7601C162.274 18.9921 160.78 18.6081 159.074 18.6081C157.367 18.6081 155.852 18.9921 154.53 19.7601C153.25 20.4855 152.247 21.5308 151.522 22.8961C150.796 24.2188 150.434 25.7975 150.434 27.6321V29.1681C150.434 31.0455 150.839 32.7095 151.65 34.1601C152.503 35.5681 153.676 36.6561 155.17 37.4241C156.706 38.1495 158.498 38.5121 160.546 38.5121C162.38 38.5121 163.98 38.2348 165.346 37.6801C166.754 37.1255 168.034 36.2935 169.186 35.1841L174.498 40.9441C172.919 42.7361 170.935 44.1228 168.546 45.1041C166.156 46.0428 163.404 46.5121 160.29 46.5121Z" fill="#FFA3A3"/>
</svg>