<svg width="425" height="173" viewBox="0 0 425 173" fill="none" xmlns="http://www.w3.org/2000/svg">
<path d="M1.375 1.2915V69.4582C1.375 73.9779 3.84649 78.3125 8.24579 81.5085C12.6451 84.7044 18.6118 86.4998 24.8333 86.4998H95.2083M95.2083 1.2915V171.708M329.792 1.2915V69.4582C329.792 73.9779 332.263 78.3125 336.662 81.5085C341.062 84.7044 347.028 86.4998 353.25 86.4998H423.625M423.625 1.2915V171.708M165.583 18.3332V154.667C165.583 159.186 168.055 163.521 172.454 166.717C176.853 169.913 182.82 171.708 189.042 171.708H235.958C242.18 171.708 248.147 169.913 252.546 166.717C256.945 163.521 259.417 159.186 259.417 154.667V18.3332C259.417 13.8134 256.945 9.47883 252.546 6.2829C248.147 3.08696 242.18 1.2915 235.958 1.2915H189.042C182.82 1.2915 176.853 3.08696 172.454 6.2829C168.055 9.47883 165.583 13.8134 165.583 18.3332Z" stroke="#F8F8F8" stroke-width="2" stroke-linecap="round" stroke-linejoin="round"/>
</svg>
