<?xml version="1.0" standalone="no"?>
<!DOCTYPE svg PUBLIC "-//W3C//DTD SVG 20010904//EN"
 "http://www.w3.org/TR/2001/REC-SVG-20010904/DTD/svg10.dtd">
<svg version="1.0" xmlns="http://www.w3.org/2000/svg"
 width="300.000000pt" height="479.000000pt" viewBox="0 0 300.000000 479.000000"
 preserveAspectRatio="xMidYMid meet">

<g transform="translate(0.000000,479.000000) scale(0.100000,-0.100000)"
fill="#fff" stroke="none">
<path d="M531 4675 l-65 -115 -176 0 c-97 0 -179 -2 -181 -4 -7 -8 8 -360 21
-456 35 -275 101 -505 205 -715 101 -204 175 -314 477 -698 82 -104 148 -190
148 -193 0 -2 -27 10 -61 27 -34 16 -63 28 -65 26 -2 -2 -3 -197 -2 -433 l3
-429 45 72 45 72 73 1 c39 0 72 3 72 6 0 4 -27 51 -60 106 -33 54 -60 102 -60
107 0 4 28 28 63 54 86 63 201 185 233 249 21 41 28 72 32 135 5 96 -7 137
-49 158 -35 19 -47 19 -83 0 -35 -18 -47 -11 -75 49 -31 62 -27 89 15 123 l37
29 -154 33 -154 33 -74 77 c-129 134 -286 394 -366 606 -31 81 -85 286 -85
319 0 20 11 13 70 -48 l69 -71 -30 95 c-46 144 -69 262 -76 397 l-6 122 94 3
93 3 50 85 50 85 17 -120 c25 -179 57 -293 112 -400 28 -55 86 -139 92 -133 3
2 -2 28 -10 58 -25 94 -44 221 -47 320 l-3 95 151 3 150 2 12 71 c11 63 23 97
50 138 8 10 27 0 87 -48 43 -33 81 -61 85 -61 4 0 10 10 14 23 6 27 59 83 96
102 80 41 170 25 237 -42 24 -23 43 -49 43 -57 0 -33 24 -24 97 34 l77 61 18
-23 c23 -30 39 -79 47 -142 l6 -51 153 -3 152 -3 0 -82 c0 -86 -20 -231 -46
-331 -8 -32 -13 -60 -11 -63 10 -9 97 135 125 207 36 90 67 222 83 348 6 51
14 90 17 88 3 -3 26 -41 51 -83 l46 -78 94 -3 93 -3 -7 -102 c-9 -135 -28
-239 -65 -367 -17 -58 -33 -114 -36 -125 -3 -11 26 14 65 55 39 41 71 71 71
65 0 -5 -11 -57 -24 -115 -68 -297 -238 -622 -447 -853 -48 -53 -35 -48 -283
-102 l-80 -18 38 -32 38 -32 -16 -54 c-8 -30 -26 -65 -38 -76 -21 -19 -25 -20
-48 -8 -37 21 -65 18 -99 -11 -31 -25 -31 -27 -31 -118 0 -51 5 -108 11 -127
17 -48 88 -146 145 -199 37 -35 145 -120 172 -136 2 -1 -26 -50 -62 -109 -36
-59 -66 -109 -66 -111 0 -2 31 -4 69 -4 l68 0 52 -77 51 -78 0 438 c0 240 -2
437 -5 437 -3 0 -30 -14 -60 -31 -30 -17 -55 -28 -55 -24 0 4 71 97 158 208
86 111 180 234 209 272 327 448 454 821 479 1417 l7 168 -184 2 -184 3 -63
112 -64 112 -100 -114 -99 -115 -95 0 -94 0 -29 58 c-30 59 -95 142 -112 142
-5 0 -38 -23 -74 -51 l-64 -50 -38 30 c-126 100 -277 100 -404 0 l-39 -31 -53
43 c-28 24 -59 49 -68 56 -15 12 -22 7 -63 -44 -26 -32 -57 -79 -69 -105 l-22
-48 -96 0 -96 0 -97 115 c-54 63 -99 115 -100 115 0 0 -30 -52 -65 -115z"/>
<path d="M1454 4421 c-66 -30 -110 -94 -173 -253 -16 -40 -47 -113 -70 -163
l-42 -89 31 -45 c20 -28 28 -46 21 -51 -6 -3 -58 -12 -116 -19 -58 -7 -105
-17 -105 -22 0 -5 8 -22 17 -36 l18 -26 -135 -129 c-126 -119 -133 -128 -105
-128 17 0 41 -3 53 -7 22 -5 20 -9 -36 -63 -89 -85 -104 -164 -46 -252 35 -54
93 -81 164 -76 74 5 104 28 182 135 l62 86 53 -59 c76 -85 149 -192 215 -319
l57 -110 3 139 3 138 135 78 135 78 5 58 5 59 88 -123 c98 -135 133 -162 211
-162 80 0 131 31 168 104 26 51 21 129 -11 175 -26 37 -425 369 -459 382 -13
5 -84 9 -158 9 -74 0 -134 4 -134 9 0 22 -134 150 -184 177 -63 33 -62 28 -19
153 19 53 38 87 69 119 42 43 44 45 94 40 l50 -5 0 83 c0 82 1 84 24 84 34 0
88 -40 113 -85 12 -22 41 -87 64 -145 23 -58 57 -135 76 -173 l34 -68 -40 -52
c-22 -28 -39 -53 -37 -54 3 -3 204 -33 225 -33 13 0 12 -14 -3 -51 -5 -11 22
-40 96 -105 150 -131 161 -137 78 -45 -41 46 -88 98 -103 117 l-28 33 25 40
26 40 -33 5 c-17 3 -70 11 -117 17 -47 6 -86 12 -88 14 -2 1 9 17 24 34 l27
32 -51 107 c-28 59 -65 144 -82 189 -41 107 -85 172 -135 199 -59 32 -95 35
-141 15z m-34 -748 c0 -5 -44 -33 -98 -63 l-97 -56 -3 -58 c-3 -57 -7 -64
-102 -195 -54 -75 -109 -146 -123 -159 -51 -48 -138 -37 -186 24 -25 32 -29
109 -6 141 18 25 399 341 435 360 26 14 180 19 180 6z m343 -5 c30 -16 408
-326 429 -352 39 -49 28 -125 -25 -175 -35 -32 -102 -38 -143 -13 -16 11 -78
86 -137 168 -105 146 -107 149 -107 204 l0 55 -95 53 c-52 30 -98 58 -101 63
-8 13 153 11 179 -3z m-148 -82 l110 -64 3 -129 3 -129 -109 -62 c-59 -34
-114 -62 -121 -62 -7 0 -59 27 -117 61 l-104 61 0 131 1 132 107 62 c59 34
109 62 112 62 3 1 55 -28 115 -63z"/>
<path d="M1433 3537 c-35 -17 -63 -34 -63 -38 0 -3 28 -25 63 -48 l62 -41 3
40 c2 22 2 57 0 79 l-3 38 -62 -30z"/>
<path d="M1390 4109 c0 -22 8 -47 21 -63 12 -15 29 -48 38 -74 17 -48 33 -59
76 -48 15 4 24 16 29 38 4 18 17 49 30 68 13 20 27 54 30 75 l7 40 -116 0
-115 0 0 -36z"/>
<path d="M1675 3906 c-27 -19 -68 -53 -90 -76 l-40 -43 45 30 c25 17 70 43
100 58 67 33 62 29 54 49 -8 21 -11 21 -69 -18z"/>
<path d="M572 2143 l3 -658 53 -3 52 -3 0 597 0 597 -47 63 c-27 35 -51 64
-56 64 -4 0 -6 -296 -5 -657z"/>
<path d="M2370 2733 l-50 -66 2 -591 3 -591 53 -3 52 -3 0 660 c0 364 -2 661
-5 661 -2 0 -27 -30 -55 -67z"/>
<path d="M1050 1688 c1 -30 36 -197 43 -205 17 -17 36 10 42 61 9 68 21 64 30
-9 6 -45 11 -55 26 -55 20 0 21 1 44 129 19 104 19 101 -4 101 -19 0 -31 -34
-31 -86 0 -46 -18 -23 -25 31 -5 45 -10 55 -25 55 -14 0 -21 -10 -25 -37 -13
-76 -18 -80 -30 -23 -7 39 -16 56 -28 58 -12 3 -17 -3 -17 -20z"/>
<path d="M1326 1694 c-19 -18 -23 -163 -6 -195 13 -24 72 -26 94 -3 25 24 23
175 -2 197 -23 21 -66 22 -86 1z m64 -99 c0 -68 -2 -75 -20 -75 -18 0 -20 7
-20 75 0 68 2 75 20 75 18 0 20 -7 20 -75z"/>
<path d="M1500 1595 c0 -108 1 -115 20 -115 17 0 20 7 20 46 0 56 20 56 36 -2
8 -28 17 -40 32 -42 26 -4 26 -6 7 49 -14 38 -14 46 0 75 11 24 12 38 4 62
-11 32 -32 42 -86 42 l-33 0 0 -115z m80 45 c0 -23 -4 -30 -20 -30 -16 0 -20
7 -20 30 0 23 4 30 20 30 16 0 20 -7 20 -30z"/>
<path d="M1710 1595 l0 -115 50 0 c43 0 50 3 50 20 0 16 -7 20 -30 20 l-30 0
0 95 c0 88 -1 95 -20 95 -19 0 -20 -7 -20 -115z"/>
<path d="M1870 1594 l0 -115 47 3 c62 4 75 26 71 126 -4 85 -17 102 -80 102
l-38 0 0 -116z m74 60 c3 -9 6 -35 6 -59 0 -53 -8 -75 -26 -75 -11 0 -14 18
-14 75 0 57 3 75 14 75 8 0 17 -7 20 -16z"/>
<path d="M161 1336 c-35 -19 -40 -37 -40 -154 -1 -96 1 -104 24 -127 32 -33
78 -33 111 0 33 33 31 88 -3 93 -18 3 -22 -2 -25 -30 -2 -23 -9 -34 -22 -36
-29 -6 -36 16 -36 109 0 65 4 90 15 99 19 16 45 -3 45 -31 0 -14 7 -19 25 -19
20 0 25 5 25 24 0 38 -10 56 -41 71 -34 18 -47 18 -78 1z"/>
<path d="M1623 1340 c-35 -15 -43 -43 -43 -155 0 -99 2 -107 25 -130 15 -16
36 -25 55 -25 19 0 40 9 55 25 24 23 25 31 25 133 0 90 -3 114 -17 131 -21 24
-68 35 -100 21z m62 -62 c3 -13 5 -61 3 -108 -3 -74 -5 -85 -22 -88 -10 -2
-22 2 -27 10 -10 15 -12 168 -3 192 9 24 43 20 49 -6z"/>
<path d="M2130 1343 c-34 -13 -50 -37 -50 -76 0 -34 7 -46 50 -88 55 -53 68
-99 29 -99 -13 0 -23 8 -26 21 -8 29 -59 23 -55 -6 4 -26 47 -65 72 -65 35 0
69 22 79 52 14 40 -4 81 -58 133 -22 21 -41 47 -41 57 0 26 30 35 45 15 15
-21 55 -23 55 -3 0 37 -62 73 -100 59z"/>
<path d="M370 1190 l0 -150 30 0 30 0 0 65 c0 63 1 65 25 65 24 0 25 -2 25
-65 l0 -65 30 0 30 0 0 150 0 150 -30 0 -30 0 0 -60 c0 -57 -1 -60 -25 -60
-24 0 -25 3 -25 60 l0 60 -30 0 -30 0 0 -150z"/>
<path d="M660 1333 c0 -5 -11 -71 -25 -147 -14 -77 -25 -141 -25 -143 0 -2 11
-3 24 -3 19 0 26 7 31 30 5 25 11 30 36 30 26 0 29 -4 29 -30 0 -26 4 -30 28
-30 l29 0 -19 98 c-41 219 -35 202 -74 202 -19 0 -34 -3 -34 -7z m50 -145 c0
-29 -4 -38 -16 -38 -14 0 -15 7 -10 38 3 20 6 44 6 52 1 35 20 -16 20 -52z"/>
<path d="M860 1191 l0 -151 25 0 c24 0 24 1 27 103 l3 102 20 -102 c15 -79 23
-103 35 -103 13 0 21 23 36 98 l19 97 3 -97 c3 -97 3 -98 27 -98 l25 0 0 151
0 150 -37 -3 -38 -3 -14 -72 c-8 -40 -18 -73 -21 -73 -3 0 -13 33 -21 73 l-14
72 -37 3 -38 3 0 -150z"/>
<path d="M1170 1190 l0 -150 25 0 c24 0 25 3 25 59 l0 58 41 6 c58 8 74 27 74
88 0 69 -24 89 -106 89 l-59 0 0 -150z m98 101 c8 -5 12 -22 10 -42 -2 -29 -7
-34 -30 -37 -27 -3 -28 -2 -28 42 0 47 15 59 48 37z"/>
<path d="M1430 1190 l0 -150 25 0 25 0 0 150 0 150 -25 0 -25 0 0 -150z"/>
<path d="M1830 1190 l0 -150 25 0 c25 0 25 1 25 81 0 44 4 78 8 75 4 -3 19
-39 32 -80 20 -66 27 -76 47 -76 l23 0 0 150 c0 143 -1 150 -20 150 -18 0 -20
-7 -20 -76 0 -41 -4 -73 -8 -70 -5 3 -19 37 -33 76 -22 64 -26 70 -51 70 l-28
0 0 -150z"/>
<path d="M2320 1190 l0 -150 25 0 c24 0 25 2 25 65 0 63 1 65 25 65 24 0 25
-2 25 -65 l0 -65 30 0 30 0 0 150 0 150 -30 0 -30 0 0 -60 c0 -57 -1 -60 -25
-60 -24 0 -25 3 -25 60 0 57 -1 60 -25 60 l-25 0 0 -150z"/>
<path d="M2580 1190 l0 -150 25 0 25 0 0 150 0 150 -25 0 -25 0 0 -150z"/>
<path d="M2720 1190 l0 -150 25 0 c24 0 25 3 25 60 l0 60 35 0 c53 0 85 36 85
94 0 62 -31 86 -111 86 l-59 0 0 -150z m109 96 c7 -8 11 -27 9 -43 -2 -23 -8
-29 -35 -31 -32 -3 -33 -2 -33 36 0 21 3 42 7 45 11 12 40 8 52 -7z"/>
<path d="M70 880 c14 -5 138 -28 275 -50 138 -23 251 -45 253 -50 2 -4 19 -34
38 -66 131 -218 416 -462 772 -663 l93 -52 77 42 c227 124 444 282 598 435 87
87 133 146 229 298 7 11 76 26 255 56 135 23 256 45 270 50 15 5 -89 9 -271 9
l-296 1 -18 -42 c-55 -128 -208 -306 -380 -444 -86 -69 -262 -185 -375 -249
l-84 -48 -72 37 c-98 50 -302 185 -404 266 -169 135 -310 299 -366 426 l-24
54 -297 -1 c-184 0 -288 -4 -273 -9z"/>
<path d="M1170 810 l0 -70 39 0 c22 0 43 5 46 10 4 6 -7 10 -24 10 l-31 0 0
60 c0 47 -3 60 -15 60 -12 0 -15 -14 -15 -70z"/>
<path d="M1270 805 l0 -65 45 0 c25 0 45 5 45 10 0 6 -13 10 -30 10 -23 0 -30
4 -30 20 0 11 7 20 15 20 8 0 15 5 15 10 0 6 -7 10 -15 10 -8 0 -15 7 -15 15
0 9 9 15 25 15 14 0 25 5 25 10 0 6 -18 10 -40 10 l-40 0 0 -65z"/>
<path d="M1400 818 c-12 -29 -24 -59 -27 -65 -3 -7 0 -13 6 -13 6 0 16 11 21
25 7 17 17 25 35 25 18 0 26 -7 31 -25 3 -14 12 -25 20 -25 18 0 18 -1 -12 69
-15 34 -32 61 -39 61 -7 0 -22 -24 -35 -52z m36 -5 c-10 -10 -19 5 -10 18 6
11 8 11 12 0 2 -7 1 -15 -2 -18z"/>
<path d="M1522 854 c-15 -10 -22 -25 -22 -49 0 -44 33 -68 87 -63 35 3 38 6
41 36 2 24 -1 32 -12 32 -10 0 -16 -9 -16 -24 0 -32 -12 -39 -44 -26 -37 14
-46 58 -16 82 15 12 32 17 47 13 13 -3 23 -1 23 5 0 16 -63 12 -88 -6z"/>
<path d="M1640 817 c0 -29 5 -58 12 -65 7 -7 31 -12 55 -12 l43 0 0 66 c0 48
-3 65 -12 62 -8 -3 -14 -26 -16 -55 -5 -87 -62 -75 -62 13 0 24 -4 44 -10 44
-5 0 -10 -24 -10 -53z"/>
<path d="M1780 805 l0 -65 39 0 c22 0 43 5 46 10 4 6 -7 10 -24 10 -24 0 -31
4 -31 20 0 11 7 20 15 20 8 0 15 5 15 10 0 6 -7 10 -15 10 -8 0 -15 7 -15 15
0 9 9 15 25 15 14 0 25 5 25 10 0 6 -18 10 -40 10 l-40 0 0 -65z"/>
<path d="M1897 738 c-31 -11 -46 -51 -27 -73 7 -8 32 -24 56 -35 48 -20 56
-43 23 -60 -15 -8 -29 -8 -51 -1 -35 12 -43 9 -35 -14 8 -20 85 -20 115 1 45
31 25 71 -58 117 -28 15 -30 20 -19 33 9 11 23 14 46 11 39 -7 48 17 11 27
-27 7 -26 7 -61 -6z"/>
<path d="M1045 640 l0 -101 49 3 c59 4 78 28 22 28 l-36 0 0 85 c0 74 -2 85
-17 85 -16 0 -18 -11 -18 -100z"/>
<path d="M1324 710 c-26 -10 -54 -48 -54 -72 0 -28 42 -67 75 -69 69 -5 75 -1
75 36 0 24 -5 35 -15 35 -10 0 -15 -10 -15 -30 0 -23 -5 -30 -19 -30 -26 0
-71 38 -71 61 0 30 37 61 70 57 16 -1 31 2 32 7 4 13 -51 17 -78 5z"/>
<path d="M1175 640 l0 -70 53 0 c33 0 51 4 47 10 -3 6 -22 10 -41 10 -28 0
-34 4 -34 21 0 12 8 23 20 26 11 3 20 9 20 14 0 5 -9 9 -20 9 -11 0 -20 7 -20
15 0 10 10 15 30 15 17 0 30 5 30 10 0 6 -19 10 -42 10 l-43 0 0 -70z"/>
<path d="M1445 640 l0 -70 48 0 c26 0 47 5 47 10 0 6 -13 10 -30 10 -25 0 -30
4 -30 25 0 16 6 25 15 25 8 0 15 5 15 10 0 6 -7 10 -15 10 -8 0 -15 7 -15 15
0 10 10 15 30 15 17 0 30 5 30 10 0 6 -21 10 -47 10 l-48 0 0 -70z"/>
<path d="M1565 640 c0 -49 4 -70 13 -70 8 0 12 17 12 52 l0 52 49 -48 49 -48
4 66 c2 48 0 66 -9 66 -8 0 -13 -14 -13 -37 l0 -37 -38 37 c-57 55 -67 50 -67
-33z"/>
<path d="M1725 640 l0 -70 41 0 c75 0 115 61 74 113 -18 22 -29 27 -68 27
l-47 0 0 -70z m99 18 c12 -33 -14 -68 -51 -68 -21 0 -23 4 -23 51 l0 50 32 -3
c25 -2 35 -9 42 -30z"/>
</g>
</svg>
